<svg xmlns="http://www.w3.org/2000/svg" viewBox="0 0 45.16 50.19"><defs><style>.cls-1{fill:#b3bbe5;opacity:0.5;}.cls-2{fill:#5d7af4;}</style></defs><title>afterwork</title><g id="Calque_2" data-name="Calque 2"><g id="Calque_1-2" data-name="Calque 1"><circle class="cls-1" cx="24.62" cy="29.46" r="20"/><path class="cls-2" d="M27.7,31.77a5.32,5.32,0,0,1,0-.69.2.2,0,0,1,0-.07,7.39,7.39,0,0,1,2-4.3L44.86,10.85a.87.87,0,0,0,.2-1,.87.87,0,0,0-.88-.61h-11L35,4.3l7.81-2.39a.87.87,0,0,0,.64-.44.84.84,0,0,0,.06-.72,1,1,0,0,0-.44-.64.84.84,0,0,0-.74,0L34,2.55a.86.86,0,0,0-.68.59l-2.18,6H13.5A6.79,6.79,0,1,0,6.79,17,6.7,6.7,0,0,0,10.2,16l5,5.27a0,0,0,0,0,0,0l5.16,5.4a7.44,7.44,0,0,1,2,4.69.87.87,0,0,0-.07.37v9.14a6.32,6.32,0,0,1-4.06,6L14.7,48.34a1,1,0,0,0-.57,1.07,1,1,0,0,0,1,.78H35a.86.86,0,0,0,.66-.27.79.79,0,0,0,.15-.62,1,1,0,0,0-.59-1l-3.57-1.41a6.45,6.45,0,0,1-4.07-6V32.18A1.07,1.07,0,0,0,27.7,31.77ZM24.23,30a9.45,9.45,0,0,0-2.38-4.66l-.13-.14-4.14-4.31a5.06,5.06,0,0,0,1.2-.93A4,4,0,0,1,22,18.62a3,3,0,0,1,2.3,1.18,4.75,4.75,0,0,0,2.38,1.82l-.82,2.29a1,1,0,0,0,.55,1.25.48.48,0,0,0,.33.1,1.12,1.12,0,0,0,1-.67l1-2.69A7.22,7.22,0,0,0,33.23,20a4.2,4.2,0,0,1,.9-.69l-5.76,6.06a9.24,9.24,0,0,0-2.52,5.44H24.36C24.33,30.53,24.28,30.27,24.23,30Zm-13.18-16L8.2,11.14H30.45L27.3,19.88a2.71,2.71,0,0,1-1.54-1.16,5.06,5.06,0,0,0-3.76-2,6.5,6.5,0,0,0-4.67,1.95,7.73,7.73,0,0,1-1.15.83l-5-5.2A1.43,1.43,0,0,0,11.05,14.05Zm25.54,2.69a6.76,6.76,0,0,0-4.8,1.88,5.34,5.34,0,0,1-2.41,1.28l3.15-8.76h9.41ZM24.46,40.83V32.74h1.38v8.09a8.27,8.27,0,0,0,4.35,7.41H20A8.59,8.59,0,0,0,24.46,40.83ZM6,9.19a.87.87,0,0,0-.88.58,1.52,1.52,0,0,0-.09.28.69.69,0,0,0,0,.25s0,0,0,0,0,0,0,0a1,1,0,0,0,.26.48L8.8,14.54a4,4,0,0,1-2,.47,4.85,4.85,0,1,1,4.73-5.82Z"/></g></g></svg>