<svg xmlns="http://www.w3.org/2000/svg" viewBox="0 0 43.01 56.28"><defs><style>.cls-1{fill:#b3bbe5;opacity:0.5;}.cls-2{fill:#5d7af4;}</style></defs><title>anniversaire</title><g id="Calque_2" data-name="Calque 2"><g id="Calque_1-2" data-name="Calque 1"><circle class="cls-1" cx="21.5" cy="36.28" r="20"/><path class="cls-2" d="M21.51,12.19a5,5,0,0,1-3.63-1.55,5.27,5.27,0,0,1,0-7.32l3-3A.92.92,0,0,1,21.5,0a.91.91,0,0,1,.64.27l3,3a5.27,5.27,0,0,1,0,7.33A5,5,0,0,1,21.51,12.19ZM19.17,4.56a3.48,3.48,0,0,0,0,4.84l.11.11a3.23,3.23,0,0,0,4.54-.11,3.48,3.48,0,0,0,0-4.85L21.51,2.18Z"/><path class="cls-2" d="M9,52.14a5.57,5.57,0,0,1-5.36-4L2.4,44.25H.86A.87.87,0,0,1,.23,44a.81.81,0,0,1-.23-.6V29.83a5.59,5.59,0,0,1,5.56-5.62H15.9V16.29A3.25,3.25,0,0,1,19.11,13H23.9a3.25,3.25,0,0,1,3.21,3.27v7.92H37.45A5.59,5.59,0,0,1,43,29.83V43.38a.89.89,0,0,1-.24.63.87.87,0,0,1-.59.24H40.62l-1.19,3.91a5.6,5.6,0,0,1-5.36,4H9ZM5.29,47.62a3.83,3.83,0,0,0,3.65,2.73H34.06a3.81,3.81,0,0,0,3.65-2.73l1-3.37H4.26ZM11.19,36a9.69,9.69,0,0,0-4.78,1.1,12.33,12.33,0,0,1-4.36,1.21l-.26,0v4.1H41.22v-4.1l-.26,0a11.79,11.79,0,0,1-4.35-1.21A9.7,9.7,0,0,0,31.83,36,9.76,9.76,0,0,0,27,37.13a11.74,11.74,0,0,1-5.53,1.25A11.67,11.67,0,0,1,16,37.13,9.82,9.82,0,0,0,11.19,36Zm0-1.79a11.79,11.79,0,0,1,5.53,1.25,9.71,9.71,0,0,0,4.8,1.11,9.78,9.78,0,0,0,4.8-1.1,11.58,11.58,0,0,1,5.52-1.26,11.56,11.56,0,0,1,5.5,1.25,9.92,9.92,0,0,0,3.59,1.06l.31,0V29.83A3.81,3.81,0,0,0,37.44,26H5.56a3.84,3.84,0,0,0-3.78,3.84v6.75l.31,0a9.83,9.83,0,0,0,3.56-1A11.67,11.67,0,0,1,11.16,34.24Zm7.93-19.43a1.46,1.46,0,0,0-1.4,1.49v7.91h7.63V16.29a1.44,1.44,0,0,0-1.42-1.48H19.09Z"/></g></g></svg>