<svg xmlns="http://www.w3.org/2000/svg" viewBox="0 0 56.67 40"><defs><style>.cls-1{fill:#b3bbe5;opacity:0.5;}.cls-2{fill:#5d7af4;}</style></defs><title>dej</title><g id="Calque_2" data-name="Calque 2"><g id="Calque_1-2" data-name="Calque 1"><circle class="cls-1" cx="29.04" cy="20" r="20"/><path class="cls-2" d="M29.24,1a19.3,19.3,0,1,0,19.29,19.3A19.32,19.32,0,0,0,29.24,1Zm0,36.78A17.49,17.49,0,1,1,46.73,20.31,17.5,17.5,0,0,1,29.24,37.79Z"/><path class="cls-2" d="M29.24,5.76a14.4,14.4,0,1,0,14.4,14.4A14.41,14.41,0,0,0,29.24,5.76Zm0,27.3a12.91,12.91,0,1,1,12.9-12.9A12.92,12.92,0,0,1,29.24,33.06Z"/><path class="cls-2" d="M8.14,1a.91.91,0,0,0-.91.91V9.45H5.43V1.92a.91.91,0,1,0-1.81,0V9.45H1.81V1.92A.91.91,0,0,0,.9,1a.91.91,0,0,0-.9.91V12.77A4.54,4.54,0,0,0,3.62,17.2V38.7a.91.91,0,0,0,1.81,0V17.2A4.53,4.53,0,0,0,9,12.77V1.92A.9.9,0,0,0,8.14,1ZM4.52,15.48a2.71,2.71,0,0,1-2.71-2.71V11.26H7.23v1.51a2.71,2.71,0,0,1-2.71,2.71Z"/><path class="cls-2" d="M55.77,1a4.53,4.53,0,0,0-4.52,4.53V22.12a.9.9,0,0,0,.9.9h2.72V38.7a.9.9,0,0,0,1.8,0V1.92a.9.9,0,0,0-.9-.91Zm-.9,20.2H53.06V5.54A2.71,2.71,0,0,1,54.87,3Z"/></g></g></svg>