<svg xmlns="http://www.w3.org/2000/svg" viewBox="0 0 55.35 40"><defs><style>.cls-1{fill:#b3bbe5;opacity:0.5;}.cls-2{fill:#5d7af4;}</style></defs><title>diner</title><g id="Calque_2" data-name="Calque 2"><g id="Calque_1-2" data-name="Calque 1"><circle class="cls-1" cx="27.68" cy="20" r="20"/><path class="cls-2" d="M15.6,7.87a.82.82,0,0,0-.89-.76A.84.84,0,0,0,14,8l.39,4.79a.82.82,0,0,0,.82.76h.07a.82.82,0,0,0,.75-.89Z"/><path class="cls-2" d="M15.29,37.37c-3.3.2-4.4-1.72-4.63-3.78l-.07-1.65V24.75a9.76,9.76,0,0,0,8.9-10.5l-1-12.36a.82.82,0,0,0-.82-.76H1.84A.82.82,0,0,0,1,1.89L0,14.24A9.76,9.76,0,0,0,8.94,24.75v7.19l-.08,1.65A3.83,3.83,0,0,1,5.8,37a5.12,5.12,0,0,1-1.31.2.83.83,0,1,0,0,1.65H16.11s1-1.43-.41-1.5Zm-13.61-23L2.6,2.78H16.92l.93,11.6A8,8,0,0,1,17.64,17H1.88A8,8,0,0,1,1.68,14.38ZM3.8,20.53a8.21,8.21,0,0,1-1.31-1.91H17a7.91,7.91,0,0,1-1.31,1.91,8.11,8.11,0,0,1-11.92,0ZM8.65,37.22a6.28,6.28,0,0,0,1.11-1.4,6.28,6.28,0,0,0,1.11,1.4Z"/><path class="cls-2" d="M46.06,32.82a.75.75,0,0,1-.71-.53A18.07,18.07,0,0,0,39,23.15a17.75,17.75,0,0,0-10.77-3.61.76.76,0,0,1-.75-.75.75.75,0,0,1,.75-.74A19.2,19.2,0,0,1,39.88,22a19.64,19.64,0,0,1,6.9,9.9.75.75,0,0,1-.5.93A.78.78,0,0,1,46.06,32.82Z"/><path class="cls-2" d="M20.1,38.46a.75.75,0,0,1-.75-.74A.76.76,0,0,1,20.1,37H49.83v-.39A21.65,21.65,0,0,0,28.21,15.81a18.55,18.55,0,0,0-5.21.63c-1.2.35-1.76.17-1.85-.41,0-.31.39-.76,1.42-1a22.81,22.81,0,0,1,2.49-.48l.5-.07L25.34,14A3.23,3.23,0,0,1,25,12.63a3.18,3.18,0,0,1,6.36,0A3.1,3.1,0,0,1,31.07,14l-.22.46.51.07a23.17,23.17,0,0,1,20,22.08V37h3.29a.75.75,0,0,1,.74.75.74.74,0,0,1-.74.74ZM28.21,11a1.69,1.69,0,1,0,1.68,1.68A1.69,1.69,0,0,0,28.21,11Z"/></g></g></svg>