<svg xmlns="http://www.w3.org/2000/svg" viewBox="0 0 47.61 47.61"><defs><style>.cls-1{fill:#b3bbe5;opacity:0.5;}.cls-2{fill:#5d7af4;}</style></defs><title>pot-depart</title><g id="Calque_2" data-name="Calque 2"><g id="Calque_1-2" data-name="Calque 1"><circle class="cls-1" cx="23.43" cy="26.71" r="20"/><path class="cls-2" d="M37.13,9.22A5.46,5.46,0,0,0,38.6,5.47,5.43,5.43,0,0,0,33.23,0C31,0,25.84,3.34,23.78,6.34,21.66,3.34,16.53.1,14.38.1A5.43,5.43,0,0,0,9,5.57a5.46,5.46,0,0,0,1.37,3.64H1.45A1.45,1.45,0,0,0,0,10.66V20.82a1.45,1.45,0,0,0,1.45,1.46H2.84V46.15a1.45,1.45,0,0,0,1.45,1.46h39a1.46,1.46,0,0,0,1.46-1.46V22.29h1.37a1.46,1.46,0,0,0,1.46-1.46V10.67a1.45,1.45,0,0,0-1.46-1.45ZM33.23,2a3.42,3.42,0,0,1,3.34,3.55,3.54,3.54,0,0,1-2.74,3.48H25.61c-.52-.15-.69-.34-.69-.44C24.92,6.89,31,2,33.23,2ZM14.38,2c2.13,0,8.31,4.86,8.31,6.59,0,.15-.36.33-.63.44H13.79a3.53,3.53,0,0,1-2.74-3.48A3.46,3.46,0,0,1,14.38,2Zm3.34,43.55H4.86V22.29H17.72Zm0-25.22H2V11.25h15.7v9.11ZM27.84,45.58h-8.1V11.24h8.1Zm14.9,0H29.88V22.29H42.74Zm2.83-25.22H29.88V11.25h15.7v9.11Z"/></g></g></svg>