<svg xmlns="http://www.w3.org/2000/svg" viewBox="0 0 45.63 45.67"><defs><style>.cls-1{fill:#b3bbe5;opacity:0.5;}.cls-2{fill:#5d7af4;}</style></defs><title>prez-annuelle</title><g id="Calque_2" data-name="Calque 2"><g id="Calque_1-2" data-name="Calque 1"><circle class="cls-1" cx="21.51" cy="21.58" r="20"/><path class="cls-2" d="M40.3,45.67a1,1,0,0,1-.83-.48L30.66,31.42H14.89L6.07,45.16a1,1,0,0,1-.82.47,1.06,1.06,0,0,1-.56-.16,1,1,0,0,1-.4-.58,1,1,0,0,1,.14-.76l8.14-12.67H5.29a1,1,0,0,1-1-1V10.54H1a1,1,0,0,1-1-1V1A1,1,0,0,1,1,0H44.63a1,1,0,0,1,1,1V9.54a1,1,0,0,1-1,1H41.34V30.46a1,1,0,0,1-1,1H33l8.09,12.71a.92.92,0,0,1,.15.73,1,1,0,0,1-.43.63A1.11,1.11,0,0,1,40.3,45.67ZM31.13,29.41a1.06,1.06,0,0,1,.34.06l.1,0h7.77l0-.66V10.54H6.29v19h24.4l.1,0A1.06,1.06,0,0,1,31.13,29.41ZM2,8.54H43.58V2H2Z"/><path class="cls-2" d="M12.86,26a1.29,1.29,0,0,1-.78-.28,1,1,0,0,1-.26-.68,1,1,0,0,1,.29-.71L15.43,21a.89.89,0,0,1,.68-.31,1.07,1.07,0,0,1,.25,0l5.76,1.49,5.12-6.06a1.08,1.08,0,0,1,.8-.37.9.9,0,0,1,.61.23,1.15,1.15,0,0,1,.37.71,1,1,0,0,1-.22.71L23.28,24a1.06,1.06,0,0,1-.77.34,1,1,0,0,1-.25,0l-5.8-1.51-2.89,2.9A1.05,1.05,0,0,1,12.86,26Z"/></g></g></svg>