<svg xmlns="http://www.w3.org/2000/svg" viewBox="0 0 47.66 48.17"><defs><style>.cls-1{fill:#b3bbe5;opacity:0.5;}.cls-2{fill:#5d7af4;}</style></defs><title>ptit-dej</title><g id="Calque_2" data-name="Calque 2"><g id="Calque_1-2" data-name="Calque 1"><circle class="cls-1" cx="26.46" cy="24.04" r="20"/><path class="cls-2" d="M43.18,44.57A27.18,27.18,0,0,0,45.52,33a6.21,6.21,0,0,0,2-6.15C46.93,23,44.93,19,42.66,17a3.62,3.62,0,0,0,.06-.46,4.9,4.9,0,0,0-.58-2.79s-.7-1-.85-1.14L34.6,6l-.85-.6a4.82,4.82,0,0,0-2.84-.6,3.06,3.06,0,0,0-.45.06A18.3,18.3,0,0,0,20.68.11c-2.94-.46-5.28.54-6.56,2.66A26.73,26.73,0,0,0,3.57,5.15,6.07,6.07,0,0,0,0,10.45a5.25,5.25,0,0,0,1.51,3.94,5,5,0,0,0,1.19.88l9.49,5.17c.31,2.39,1,4.38,2.18,5.58a4.31,4.31,0,0,0,1,.73,3.87,3.87,0,0,0,.82.51,4.18,4.18,0,0,0,1.21,2.93,4.22,4.22,0,0,0,3,1.2,4.05,4.05,0,0,0,.56.91,4,4,0,0,0,.73,1c1.26,1.26,3.35,1.92,5.88,2.2l5.52,10A5,5,0,0,0,34,46.67a5.21,5.21,0,0,0,3.94,1.49,6,6,0,0,0,5.29-3.59ZM39.1,13.2l-4.33,2.52a2.19,2.19,0,0,1-3-3L34.27,8.4ZM12,18.11,3.63,13.55a3.18,3.18,0,0,1-1.67-3A4.07,4.07,0,0,1,4.39,6.93a24.27,24.27,0,0,1,8.93-2.18c0,.17-.08.34-.11.52-.08.46-.17.93-.25,1.42a66.14,66.14,0,0,0-1,9.68v.26c0,.4,0,.79,0,1.18v.3Zm4.53,7.08-.19-.13c-1.17-.59-1.91-2.28-2.23-4.87l0-.47a37.8,37.8,0,0,1,.09-7.11,2.28,2.28,0,0,0,0-.26c.05-.51.11-1,.16-1.51,0-.16.05-.33.07-.49.05-.42.1-.84.16-1.24l.12-.81c.05-.31.09-.63.14-.92.1-.58.19-1.16.3-1.76a6.88,6.88,0,0,1,.23-.87l.09-.24C16.22,2.56,18,1.66,20.38,2a17.25,17.25,0,0,1,8.14,3.62l-.06,0a4.88,4.88,0,0,0-.55.47l-.15.15a7.64,7.64,0,0,0-.51.62h0L16.72,25.17l-.07.12-.12-.1Zm1.62,1.64h0a3.57,3.57,0,0,1,.1-.35,1.87,1.87,0,0,1,.15-.32L28.9,8a2.32,2.32,0,0,1,.39-.44l.13-.12a4.08,4.08,0,0,1,.33-.25l.16-.1a2.25,2.25,0,0,1,.45-.19l.07,0h0a2.55,2.55,0,0,1,.61-.13,3,3,0,0,1,1.69.36l-2.7,4.66a4.15,4.15,0,0,0,5.69,5.66l4.65-2.72a2.9,2.9,0,0,1,.36,1.69,2.71,2.71,0,0,1-.11.58l0,.08a1.6,1.6,0,0,1-.1.23,1.33,1.33,0,0,1-.1.24l-.15.25-.17.24-.15.17a2.57,2.57,0,0,1-.39.35L21.42,29.14a2,2,0,0,1-.62.24l-.1,0a2.17,2.17,0,0,1-1.94-.6,2.22,2.22,0,0,1-.61-2Zm4.46,4.47-.13-.19a1.84,1.84,0,0,1-.17-.22l.1-.06L40.64,20.17a7.57,7.57,0,0,0,.6-.5l.11-.12a4.65,4.65,0,0,0,.49-.59l0,0a17.23,17.23,0,0,1,3.76,8.21c.34,2.11-.3,3.71-1.74,4.6l-.13.07a4.52,4.52,0,0,1-.7.33l-.12,0a6.88,6.88,0,0,1-.87.23c-.59.12-1.17.21-1.75.31l-.82.13L38.6,33l-1.07.14-.65.09-1.23.14-.52.05c-.45,0-.91.09-1.36.12l-.39,0c-.57,0-1.13.07-1.7.08h0c-.59,0-1.17,0-1.74,0h-.09c-.51,0-1,0-1.49-.07-3.07-.24-5.09-1-5.75-2.29ZM37.82,46.21a3.19,3.19,0,0,1-3-1.66l-4.92-8.93h1.72a67,67,0,0,0,9.45-1l1.38-.25a7.38,7.38,0,0,0,1.1-.29h.06a25,25,0,0,1-2.17,9.72,4.1,4.1,0,0,1-3.58,2.45Z"/></g></g></svg>