<svg xmlns="http://www.w3.org/2000/svg" viewBox="0 0 51.19 50.35"><defs><style>.cls-1{fill:#b3bbe5;opacity:0.5;}.cls-2{fill:#5d7af4;}</style></defs><title>seminaire</title><g id="Calque_2" data-name="Calque 2"><g id="Calque_1-2" data-name="Calque 1"><circle class="cls-1" cx="26.22" cy="25.35" r="20"/><path class="cls-2" d="M48,24.16A4.15,4.15,0,0,0,49.51,21a3.67,3.67,0,0,0-.08-.75.8.8,0,0,0,0-.15,3.61,3.61,0,0,0-.19-.64l-.09-.21a3.53,3.53,0,0,0-.28-.5l-.17-.24a4,4,0,0,0-.26-.32,2.39,2.39,0,0,0-.22-.23,3.79,3.79,0,0,0-.37-.31,4.15,4.15,0,0,1,2.53-.85V15.1a2.52,2.52,0,0,1-2.52-2.51,3.14,3.14,0,0,1,0-.45c0-.06,0-.12.05-.17a1.82,1.82,0,0,1,.07-.25,1.21,1.21,0,0,1,.09-.2,1.09,1.09,0,0,1,.08-.15,2.46,2.46,0,0,1,1.35-1.14h0a2.54,2.54,0,0,1,.83-.15V8.39a4,4,0,0,0-.85.09A5.7,5.7,0,0,0,48,7.38a4.15,4.15,0,0,0,1.5-3.18,4.2,4.2,0,1,0-8.39,0,4.15,4.15,0,0,0,1.49,3.18,5.7,5.7,0,0,0-1.49,1.1,3.86,3.86,0,0,0-.84-.09,4,4,0,0,0-.85.09,5.7,5.7,0,0,0-1.49-1.1,4.15,4.15,0,0,0,1.5-3.18,4.2,4.2,0,1,0-6.9,3.18,5.87,5.87,0,0,0-1.49,1.1,3.86,3.86,0,0,0-.84-.09,4,4,0,0,0-.85.09,5.82,5.82,0,0,0-1.48-1.1,4.2,4.2,0,1,0-5.41,0A5.65,5.65,0,0,0,21,8.48a4.06,4.06,0,0,0-1.7,0,5.82,5.82,0,0,0-1.48-1.1,4.2,4.2,0,1,0-5.41,0,5.65,5.65,0,0,0-1.48,1.1,4.06,4.06,0,0,0-1.7,0,5.82,5.82,0,0,0-1.48-1.1,4.2,4.2,0,1,0-5.41,0A5.82,5.82,0,0,0,.85,8.48,4,4,0,0,0,0,8.39v1.68a2.44,2.44,0,0,1,.82.15h0a2.51,2.51,0,0,1,1.36,1.14l.08.15.09.2c0,.08.05.16.07.25a.85.85,0,0,1,0,.17,2.14,2.14,0,0,1,0,.45A2.52,2.52,0,0,1,0,15.1v1.68a4.15,4.15,0,0,1,2.53.85c-.13.1-.26.2-.38.31l-.21.23a4,4,0,0,0-.26.32l-.18.24a4.82,4.82,0,0,0-.27.5l-.09.21a4.75,4.75,0,0,0-.2.64c0,.05,0,.1,0,.15A3.67,3.67,0,0,0,.84,21,4.2,4.2,0,0,0,4.2,25.09v6.8H.84v1.67H7.55V44.47a.84.84,0,0,0,.84.84h8.39a.83.83,0,0,0,.84-.84V33.56H51.19V29.37A5.87,5.87,0,0,0,48,24.16Zm-23.29-.71,2.93-2.92v0a2,2,0,0,1,0,.42,2.52,2.52,0,0,1-2.52,2.52A2.3,2.3,0,0,1,24.72,23.45ZM29.37,21a5.46,5.46,0,0,0,0-.57l0-.16c0-.14-.06-.28-.1-.42a.83.83,0,0,0,0-.15,3.85,3.85,0,0,0-.19-.47l.15-.16a.83.83,0,0,0,0-1.18l-.69-.69a4.29,4.29,0,0,1,4.31.45,3.93,3.93,0,0,0-.38.31l-.21.23a4,4,0,0,0-.26.32l-.18.24a4.82,4.82,0,0,0-.27.5l-.09.21a4.75,4.75,0,0,0-.2.64.77.77,0,0,0,0,.15,3.67,3.67,0,0,0-.08.75,4.15,4.15,0,0,0,1.49,3.18,5.87,5.87,0,0,0-2.33,2.2,5.94,5.94,0,0,0-2.33-2.2A4.18,4.18,0,0,0,29.37,21Zm3.36,0a2.15,2.15,0,0,1,0-.45c0-.06,0-.12,0-.17a1.69,1.69,0,0,1,.08-.24,1.8,1.8,0,0,1,.08-.21l.09-.15a2.5,2.5,0,0,1,1.35-1.14h0a2.48,2.48,0,0,1,.82-.15,2.54,2.54,0,0,1,.83.15h0a2.46,2.46,0,0,1,1.35,1.14,1.09,1.09,0,0,1,.08.15l.09.21a1.68,1.68,0,0,1,.07.24.85.85,0,0,1,0,.17,2.14,2.14,0,0,1,0,.45,2.52,2.52,0,1,1-5,0Zm6.63-.75c0-.05,0-.1,0-.15a4.75,4.75,0,0,0-.2-.64l-.09-.21a3.53,3.53,0,0,0-.28-.5l-.17-.24a4,4,0,0,0-.26-.32l-.21-.23c-.12-.11-.25-.21-.38-.31a4.31,4.31,0,0,1,5,0l-.37.31-.21.23a4,4,0,0,0-.26.32l-.18.24a4.82,4.82,0,0,0-.27.5l-.09.21a4.75,4.75,0,0,0-.2.64l0,.15a4.54,4.54,0,0,0-.07.75,4.15,4.15,0,0,0,1.49,3.18,5.87,5.87,0,0,0-2.33,2.2A5.94,5.94,0,0,0,38,24.16,4.18,4.18,0,0,0,39.44,21,3.67,3.67,0,0,0,39.36,20.23Zm3.43.75a2.14,2.14,0,0,1,.05-.45c0-.06,0-.12,0-.17a1.69,1.69,0,0,1,.08-.24,1.8,1.8,0,0,1,.08-.21,1.09,1.09,0,0,0,.08-.15,2.56,2.56,0,0,1,1.36-1.14h0a2.48,2.48,0,0,1,.82-.15,2.54,2.54,0,0,1,.83.15h0a2.46,2.46,0,0,1,1.35,1.14,1.09,1.09,0,0,1,.08.15l.09.21a1.68,1.68,0,0,1,.07.24.85.85,0,0,1,0,.17,2.14,2.14,0,0,1,0,.45,2.52,2.52,0,1,1-5,0Zm0-16.78a2.52,2.52,0,1,1,2.52,2.51A2.52,2.52,0,0,1,42.79,4.2Zm0,5a4.31,4.31,0,0,1,5.05,0,3.79,3.79,0,0,0-.37.31,2.39,2.39,0,0,0-.22.23,4,4,0,0,0-.26.32l-.17.24a3.53,3.53,0,0,0-.28.5l-.09.21a3.78,3.78,0,0,0-.19.63,1.1,1.1,0,0,0,0,.16,3.67,3.67,0,0,0-.08.75,4.18,4.18,0,0,0,1.49,3.18,5.82,5.82,0,0,0-1.48,1.1,4,4,0,0,0-.85-.09,3.86,3.86,0,0,0-.84.09A5.87,5.87,0,0,0,43,15.77a4.18,4.18,0,0,0,1.49-3.18,4.54,4.54,0,0,0-.07-.75l0-.16a5.1,5.1,0,0,0-.2-.63l-.09-.21a4.82,4.82,0,0,0-.27-.5l-.17-.24a4.15,4.15,0,0,0-.27-.32l-.21-.23Zm-1.69,1h0a2.51,2.51,0,0,1,1.36,1.14,1.09,1.09,0,0,0,.08.15,1.19,1.19,0,0,1,.08.2,1.83,1.83,0,0,1,.08.25s0,.11,0,.17a2.15,2.15,0,0,1,0,.45,2.52,2.52,0,0,1-5,0,2.14,2.14,0,0,1,.05-.45.85.85,0,0,1,0-.17,1.82,1.82,0,0,1,.07-.25,1.21,1.21,0,0,1,.09-.2,1.09,1.09,0,0,1,.08-.15,2.46,2.46,0,0,1,1.35-1.14h0a2.54,2.54,0,0,1,.83-.15A2.48,2.48,0,0,1,41.1,10.22Zm-8.37-6a2.52,2.52,0,1,1,2.51,2.51A2.51,2.51,0,0,1,32.73,4.2Zm0,5a4.31,4.31,0,0,1,5.05,0,3.79,3.79,0,0,0-.37.31,2.39,2.39,0,0,0-.22.23,4,4,0,0,0-.26.32l-.17.24a3.53,3.53,0,0,0-.28.5l-.09.21a3.78,3.78,0,0,0-.19.63l0,.16a3.67,3.67,0,0,0-.08.75,4.15,4.15,0,0,0,1.5,3.18,5.7,5.7,0,0,0-1.49,1.1,4,4,0,0,0-.85-.09,3.86,3.86,0,0,0-.84.09,5.7,5.7,0,0,0-1.49-1.1,4.15,4.15,0,0,0,1.49-3.18,4.54,4.54,0,0,0-.07-.75l0-.16a5.1,5.1,0,0,0-.2-.63,1.89,1.89,0,0,0-.09-.21,4.82,4.82,0,0,0-.27-.5l-.17-.24a4.15,4.15,0,0,0-.27-.32,2.29,2.29,0,0,0-.21-.23Zm-1.69,1h0a2.51,2.51,0,0,1,1.36,1.14,1.09,1.09,0,0,0,.08.15,1.19,1.19,0,0,1,.08.2,1.83,1.83,0,0,1,.08.25s0,.11,0,.17a2.14,2.14,0,0,1,0,.45,2.52,2.52,0,0,1-5,0,2.14,2.14,0,0,1,0-.45.85.85,0,0,1,0-.17,1.82,1.82,0,0,1,.07-.25l.09-.2a1.09,1.09,0,0,1,.08-.15,2.46,2.46,0,0,1,1.35-1.14h0a2.54,2.54,0,0,1,.83-.15A2.48,2.48,0,0,1,31,10.22Zm-8.37-6a2.52,2.52,0,1,1,2.51,2.51A2.52,2.52,0,0,1,22.66,4.2Zm0,5a4.31,4.31,0,0,1,5.05,0,3.79,3.79,0,0,0-.37.31,1.51,1.51,0,0,0-.21.23,2.69,2.69,0,0,0-.27.32l-.17.24a3.53,3.53,0,0,0-.28.5l-.09.21a5,5,0,0,0-.19.63l0,.16a3.67,3.67,0,0,0-.08.75,4.15,4.15,0,0,0,1.5,3.18L27.2,16l-.59-.6a.84.84,0,0,0-1.19,0l-1.31,1.31a6.18,6.18,0,0,0-1.27-.89,4.15,4.15,0,0,0,1.49-3.18,4.54,4.54,0,0,0-.07-.75l0-.16a3.83,3.83,0,0,0-.2-.63,1.89,1.89,0,0,0-.09-.21,4.82,4.82,0,0,0-.27-.5l-.17-.24a4.15,4.15,0,0,0-.27-.32A2.29,2.29,0,0,0,23,9.55ZM9.23,16.78a3.24,3.24,0,0,1,.15-.94v0a3.44,3.44,0,0,1,.55-1.08l.06-.07a2.82,2.82,0,0,1,.33-.36l.17-.13a2.37,2.37,0,0,1,.3-.23l.28-.15.26-.13c.13-.05.26-.08.39-.12l.21-.06a3.05,3.05,0,0,1,.52-.05h.14a3.35,3.35,0,0,1,3.34,3.35,2.33,2.33,0,0,1,0,.38v0a2.57,2.57,0,0,1-.12.55v0a3.35,3.35,0,0,1-6.55-1ZM17,19.29a2.56,2.56,0,0,1,.52.85H16.33A5.78,5.78,0,0,0,17,19.29Zm2.26.85a4.15,4.15,0,0,0-1.6-2.5,4.15,4.15,0,0,1,5.31.21l-2.29,2.29ZM21,10.22h0a2.51,2.51,0,0,1,1.36,1.14,1.09,1.09,0,0,0,.08.15,1.19,1.19,0,0,1,.08.2,1.83,1.83,0,0,1,.08.25s0,.11,0,.17a2.14,2.14,0,0,1,.05.45,2.52,2.52,0,0,1-5,0,2.14,2.14,0,0,1,.05-.45.85.85,0,0,1,0-.17,1.82,1.82,0,0,1,.07-.25l.09-.2a1.09,1.09,0,0,1,.08-.15,2.48,2.48,0,0,1,1.36-1.14h0a2.54,2.54,0,0,1,.83-.15A2.48,2.48,0,0,1,21,10.22Zm-8.37-6A2.52,2.52,0,1,1,15.1,6.71,2.52,2.52,0,0,1,12.59,4.2Zm0,5a4.31,4.31,0,0,1,5,0,3.79,3.79,0,0,0-.37.31,2.29,2.29,0,0,0-.21.23,2.69,2.69,0,0,0-.27.32l-.17.24a3.46,3.46,0,0,0-.27.5,2,2,0,0,0-.1.21,5,5,0,0,0-.19.63l0,.16a3.67,3.67,0,0,0-.08.75,4.23,4.23,0,0,0,.05.5A4.89,4.89,0,0,0,14.22,12l0-.19,0-.16a3.83,3.83,0,0,0-.2-.63,1.89,1.89,0,0,0-.09-.21,4.82,4.82,0,0,0-.27-.5l-.17-.24a4.15,4.15,0,0,0-.27-.32A2.29,2.29,0,0,0,13,9.55Zm-1.72,1,0,0a2.56,2.56,0,0,1,1.54,1.53h-.1l-.44,0-.2,0c-.14,0-.27.06-.41.09l-.17.05a3.24,3.24,0,0,0-.52.19l-.17.08-.34.18-.19.11-.35.24-.11.09a5.05,5.05,0,0,0-1.22,1.42,2.88,2.88,0,0,1-.3-.39l-.08-.15a2.9,2.9,0,0,1-.16-.41.75.75,0,0,1,0-.16,2.25,2.25,0,0,1-.08-.58,2.14,2.14,0,0,1,0-.45.85.85,0,0,1,0-.17,1.82,1.82,0,0,1,.07-.25l.09-.2a1.09,1.09,0,0,1,.08-.15,2.51,2.51,0,0,1,1.36-1.14h0a2.54,2.54,0,0,1,.83-.15A2.34,2.34,0,0,1,10.86,10.2Zm-8.34-6A2.52,2.52,0,1,1,5,6.71,2.52,2.52,0,0,1,2.52,4.2ZM2.7,15.77a4.15,4.15,0,0,0,1.5-3.18,3.67,3.67,0,0,0-.08-.75l0-.16a5,5,0,0,0-.19-.63,2,2,0,0,0-.1-.21,3.46,3.46,0,0,0-.27-.5l-.17-.24a2.69,2.69,0,0,0-.27-.32,2.29,2.29,0,0,0-.21-.23l-.37-.31a4.31,4.31,0,0,1,5.05,0l-.37.31A2.29,2.29,0,0,0,7,9.78a4.15,4.15,0,0,0-.27.32l-.17.24a4.82,4.82,0,0,0-.27.5,1.89,1.89,0,0,0-.09.21,3.83,3.83,0,0,0-.2.63l0,.16a3.67,3.67,0,0,0-.08.75,5.09,5.09,0,0,0,0,.56l.06.29A2.44,2.44,0,0,0,6,13.7c0,.1.06.2.1.3l.08.23.13.25a1.3,1.3,0,0,0,.14.26,1.63,1.63,0,0,0,.11.17c.07.11.15.21.23.32l.06.07a4.39,4.39,0,0,0,.74.69,5.16,5.16,0,0,0-.07.79,5.87,5.87,0,0,0,.09.94A4.14,4.14,0,0,0,5,16.78a3.86,3.86,0,0,0-.84.09A5.7,5.7,0,0,0,2.7,15.77Zm-.14,4.76c0-.06,0-.12,0-.17a1.69,1.69,0,0,1,.08-.24l.08-.21.09-.15A2.5,2.5,0,0,1,4.2,18.62h0a2.48,2.48,0,0,1,3.23,1.64,4.21,4.21,0,0,0-.63.2l-.16.08a4.82,4.82,0,0,0-.5.27L6,20.91a4.4,4.4,0,0,0-1,1l-.11.17a3.53,3.53,0,0,0-.28.5c0,.06,0,.11-.07.16a4.21,4.21,0,0,0-.2.63l-.16-.05L4,23.27a2.69,2.69,0,0,1-.29-.16l-.1-.06a2.3,2.3,0,0,1-.34-.28l-.07-.08L3,22.43,2.9,22.3c0-.09-.1-.17-.14-.26a1,1,0,0,1-.07-.15,1.71,1.71,0,0,1-.09-.3c0-.05,0-.1,0-.14a3.73,3.73,0,0,1,0-.47A3.14,3.14,0,0,1,2.56,20.53Zm13.38,3.8v19.3H13.43V32.73H11.75v10.9H9.23V24.33H7.55v7.56H5.87V24.33a2.52,2.52,0,0,1,2.52-2.51H21a.83.83,0,0,0,.59-.25L26,17.13l.49.49.84.84h0l-4.66,4.67-.36.36H16.78A.84.84,0,0,0,15.94,24.33Zm1.68.84h3.45a5.88,5.88,0,0,0-1.77,4.2v2.52H17.62ZM21,29.37a4.2,4.2,0,1,1,8.39,0v2.52H21Zm10.07,0a4.2,4.2,0,1,1,8.39,0v2.52H31.05Zm18.46,2.52H41.12V29.37a4.2,4.2,0,1,1,8.39,0Z"/><path class="cls-2" d="M49.51,40.28h-.84a.85.85,0,0,1-.84-.84V38.11a1.71,1.71,0,0,0-.49-1.19l-.84-.84a.84.84,0,0,0-1.19,0h0a.84.84,0,0,0,0,1.19l.6.59a.87.87,0,0,1,.24.6v1a.84.84,0,0,1-.84.84H36.92A1.68,1.68,0,0,0,35.24,42v6.71a1.68,1.68,0,0,0,1.68,1.68H49.51a1.68,1.68,0,0,0,1.68-1.68V42A1.68,1.68,0,0,0,49.51,40.28Zm0,8.39H36.92V42H49.51Z"/><rect class="cls-2" x="11.75" y="23.5" width="1.68" height="5.03"/></g></g></svg>