<svg xmlns="http://www.w3.org/2000/svg" viewBox="0 0 43.26 45.21"><defs><style>.cls-1{fill:#b3bbe5;opacity:0.5;}.cls-2{fill:#5d7af4;}</style></defs><title>special-event</title><g id="Calque_2" data-name="Calque 2"><g id="Calque_1-2" data-name="Calque 1"><circle class="cls-1" cx="21.67" cy="24.4" r="20"/><path class="cls-2" d="M39.53,4.94H35.64V1.78A2,2,0,0,0,33.44,0H30.23A1.74,1.74,0,0,0,28.3,1.78V4.93H15V1.78A1.74,1.74,0,0,0,13,0H9.82a2,2,0,0,0-2.2,1.78V4.93H3.88A3.88,3.88,0,0,0,0,8.74v32a4.28,4.28,0,0,0,4,4.51H39.26a4.28,4.28,0,0,0,4-4.51V9A3.9,3.9,0,0,0,39.53,4.94ZM9.68,8.22V1.91h3.38V8.22ZM1.9,9A2,2,0,0,1,3.7,6.85H7.62V8.19a2.12,2.12,0,0,0,2.2,1.94h3.27A1.87,1.87,0,0,0,15,8.3V6.84H28.3V8.19a1.89,1.89,0,0,0,1.82,1.94h3.32a2.12,2.12,0,0,0,2.2-1.94V6.84h3.74a2,2,0,0,1,2,1.88,1.41,1.41,0,0,1,0,.29v6.34H1.9Zm28.18-.81V1.91h3.66V8.22Zm9.18,35.09H4c-1.3,0-2.1-1.36-2.1-2.61V17.26H41.36V40.7C41.36,42,40.56,43.31,39.26,43.31Z"/><path class="cls-2" d="M29.93,26.8,24.42,26l-2.48-5.06a1,1,0,0,0-.44-.44,1,1,0,0,0-.41-.09.94.94,0,0,0-.86.54l-2.48,5-5.51.83a1,1,0,0,0-.76.62,1.1,1.1,0,0,0,.23,1l4,3.89-1,5.55a1,1,0,0,0,.09.6,1,1,0,0,0,.84.51,1,1,0,0,0,.44-.11l5-2.61L26,38.86l.47.11a.87.87,0,0,0,.55-.2,1,1,0,0,0,.38-.9l-1-5.55,4-3.89a1.07,1.07,0,0,0,.24-1A1,1,0,0,0,29.93,26.8Zm-5.44,5.32.7,4.18-3.65-2-.46-.11-.42.09L17,36.3l.7-4.18a1,1,0,0,0-.29-.86l-3-2.89,4.15-.59a.86.86,0,0,0,.66-.52l1.86-3.77L23,27.27a.83.83,0,0,0,.65.51l4.15.59-3,2.89A1,1,0,0,0,24.49,32.12Z"/></g></g></svg>