<svg xmlns="http://www.w3.org/2000/svg" viewBox="0 0 50.42 52"><defs><style>.cls-1{fill:#b3bbe5;opacity:0.5;}.cls-2{fill:#5d7af4;}</style></defs><title>teambuilding</title><g id="Calque_2" data-name="Calque 2"><g id="Calque_1-2" data-name="Calque 1"><circle class="cls-1" cx="25.21" cy="27.76" r="20"/><path class="cls-2" d="M.75,52A.76.76,0,0,1,0,51.25a.75.75,0,0,1,.75-.74H9.17V25a.75.75,0,0,1,1.5,0v25.5h3.08V39a.75.75,0,0,1,1.49,0V50.51H18.6V36.39l-.26,0a5.36,5.36,0,0,1-5.11-5.28V21.14a10.84,10.84,0,0,1,.95-4.44l.2-.43-.47,0a8.59,8.59,0,0,0-8,8.39v11a.75.75,0,0,1-1.5,0v-11a9.87,9.87,0,0,1,6.46-9.22l.43-.17L11,15a5.15,5.15,0,0,1,3.38-9,5.25,5.25,0,0,1,2.46.62.77.77,0,0,1,.36.45.71.71,0,0,1-.06.57.75.75,0,0,1-.66.39.73.73,0,0,1-.35-.09,3.66,3.66,0,1,0-1.75,6.87h.91l.09-.12a11.42,11.42,0,0,1,5.34-4l.47-.17-.39-.31a5.74,5.74,0,1,1,7.39-.15l-.37.33.47.15a11.29,11.29,0,0,1,5.79,4.15l.09.12.31,0h.12a3.66,3.66,0,1,0-1.7-6.9.67.67,0,0,1-.34.09.74.74,0,0,1-.66-.4A.71.71,0,0,1,31.82,7a.73.73,0,0,1,.37-.44,5.15,5.15,0,0,1,5.94,8.3l-.34.32.44.14a10.25,10.25,0,0,1,3.86,2.35,9.75,9.75,0,0,1,3,7l0,11a.75.75,0,0,1-1.5,0v-11a8.28,8.28,0,0,0-2.56-6,8.85,8.85,0,0,0-5.54-2.44l-.47,0,.19.42a10.7,10.7,0,0,1,1,4.45v10a5.38,5.38,0,0,1-4.94,5.27l-.25,0V50.51h3L34,39a.75.75,0,0,1,.22-.53.71.71,0,0,1,.53-.22.75.75,0,0,1,.75.74l0,11.51h3.54L39,25a.75.75,0,0,1,.22-.53.73.73,0,0,1,.52-.22.75.75,0,0,1,.75.75l.06,25.51h9.09a.75.75,0,0,1,.75.74.76.76,0,0,1-.75.75ZM24.54,35.19a.75.75,0,0,1,.74.75V50.51H29.5v-29a.75.75,0,1,1,1.5,0v13.4l.31,0a3.86,3.86,0,0,0,3.38-3.76V21.14A9.43,9.43,0,0,0,33.16,16a10.17,10.17,0,0,0-16.89,0,9.36,9.36,0,0,0-1.54,5.15v10a3.83,3.83,0,0,0,3.56,3.78l.31,0V21.49a.75.75,0,1,1,1.49,0v29h3.7V35.94A.76.76,0,0,1,24.54,35.19Zm-.15-33.7a4.25,4.25,0,1,0,4.25,4.25A4.25,4.25,0,0,0,24.39,1.49Z"/></g></g></svg>